# xmcd
#
# Track frame offsets:
#	150
#	16760
#	31670
#	45482
#	60342
#	75590
#	91031
#	105255
#	117371
#	133230
#	147643
#	163893
#	178784
#	194273
#	209836
#	223498
#	240099
#	256102
#	272742
#	284667
#	298466
#	312193
#
# Disc length: 4397 seconds
#
# Revision: 1
# Processed by: cddbd v1.5.1PL2 Copyright (c) Steve Scherf et al.
# Submitted via: audiograbber 1.83.01
#
DISCID=47112b16
DTITLE=Tony Christie - The Best Of
DYEAR=1900
DGENRE=
TTITLE0=Summer Wine
TTITLE1=Avenues and Alleyways
TTITLE2=Daddy Don't You Walk So Fast
TTITLE3=Don't Go Down To Reno
TTITLE4=Down In Mexico
TTITLE5=I Did What I Did For Maria
TTITLE6=The Way To Amarillo
TTITLE7=Blue Bayou
TTITLE8=Island In The Sun
TTITLE9=Sweet September
TTITLE10=Kiss In The Night
TTITLE11=Las Vegas
TTITLE12=One Dance With You
TTITLE13=Happy Birthday Baby
TTITLE14=San Bernandino
TTITLE15=September Love
TTITLE16=So Deep Is The Night
TTITLE17=Moonlight And Roses
TTITLE18=The Most Beautiful Girl
TTITLE19=Train To Yesterday
TTITLE20=Yellow River
TTITLE21=The Time Of My Life
EXTD=
EXTT0=
EXTT1=
EXTT2=
EXTT3=
EXTT4=
EXTT5=
EXTT6=
EXTT7=
EXTT8=
EXTT9=
EXTT10=
EXTT11=
EXTT12=
EXTT13=
EXTT14=
EXTT15=
EXTT16=
EXTT17=
EXTT18=
EXTT19=
EXTT20=
EXTT21=
PLAYORDER=
